<svg width="12" height="15" fill="none" viewBox="0 0 12 15" xmlns="http://www.w3.org/2000/svg">
  <path fill="url(#a)" d="M6.02 0a.66.66 0 0 0-.37.12h-.01c-.7.36-1.23.96-1.5 1.69a3.44 3.44 0 0 0-.05 2.4c.14.4.33.8.57 1.15.1.14.2.28.25.44a1.4 1.4 0 0 1-.04 1.09 1.59 1.59 0 0 1-1.47.94h-.04c-.22 0-.45-.04-.64-.14-.23-.1-.43-.23-.61-.4l-.17-.2a.7.7 0 0 0-1.2.23l-.06.2a4.78 4.78 0 0 0 .21 3.36A5.3 5.3 0 0 0 5.8 14h.07c1.4 0 2.73-.53 3.75-1.49a4.92 4.92 0 0 0 1.56-3.62 5.54 5.54 0 0 0-1.82-4.12 13.22 13.22 0 0 1-2.04-2.3c-.52-.85-.6-1.32-.6-1.79 0-.4-.33-.68-.69-.68Z" />
  <defs>
    <linearGradient id="a" x1="5.83" x2="5.63" y1="0" y2="14" gradientUnits="userSpaceOnUse">
      <stop stop-color="#FF686C" />
      <stop offset="1" stop-color="#EC7A01" />
    </linearGradient>
  </defs>
</svg>